<mxfile host="app.diagrams.net" agent="Mozilla/5.0 (Macintosh; Intel Mac OS X 10_15_7) AppleWebKit/605.1.15 (KHTML, like Gecko) Version/17.6 Safari/605.1.15" version="25.0.1">
  <diagram name="第 1 页" id="F3n_OmZAB9bpm3EtxzeP">
    <mxGraphModel dx="1372" dy="799" grid="1" gridSize="10" guides="1" tooltips="1" connect="1" arrows="1" fold="1" page="1" pageScale="1" pageWidth="1169" pageHeight="1654" math="0" shadow="0">
      <root>
        <mxCell id="0" />
        <mxCell id="1" parent="0" />
        <mxCell id="gP9biF-QUwRpTRRh-aC0-54" value="" style="rounded=0;whiteSpace=wrap;html=1;fillColor=#f5f5f5;dashed=1;strokeColor=#666666;fontColor=#333333;" vertex="1" parent="1">
          <mxGeometry x="660" y="1097" width="270" height="180" as="geometry" />
        </mxCell>
        <mxCell id="gP9biF-QUwRpTRRh-aC0-37" value="" style="rounded=0;whiteSpace=wrap;html=1;fillColor=#f5f5f5;dashed=1;strokeColor=#666666;fontColor=#333333;" vertex="1" parent="1">
          <mxGeometry x="687" y="685" width="220" height="144" as="geometry" />
        </mxCell>
        <mxCell id="gP9biF-QUwRpTRRh-aC0-9" value="" style="group" vertex="1" connectable="0" parent="1">
          <mxGeometry x="60" y="240" width="260" height="210" as="geometry" />
        </mxCell>
        <mxCell id="gP9biF-QUwRpTRRh-aC0-7" value="" style="rounded=0;whiteSpace=wrap;html=1;fillColor=#ffe6cc;strokeColor=#d79b00;" vertex="1" parent="gP9biF-QUwRpTRRh-aC0-9">
          <mxGeometry width="260" height="210" as="geometry" />
        </mxCell>
        <mxCell id="gP9biF-QUwRpTRRh-aC0-4" value="" style="rounded=0;whiteSpace=wrap;html=1;fillColor=#f5f5f5;dashed=1;strokeColor=#666666;fontColor=#333333;" vertex="1" parent="gP9biF-QUwRpTRRh-aC0-9">
          <mxGeometry x="30" y="40" width="200" height="150" as="geometry" />
        </mxCell>
        <mxCell id="gP9biF-QUwRpTRRh-aC0-1" value="RESULT_SINK_OPERATOR" style="rounded=1;whiteSpace=wrap;html=1;" vertex="1" parent="gP9biF-QUwRpTRRh-aC0-9">
          <mxGeometry x="50" y="60" width="160" height="30" as="geometry" />
        </mxCell>
        <mxCell id="gP9biF-QUwRpTRRh-aC0-3" style="edgeStyle=orthogonalEdgeStyle;rounded=0;orthogonalLoop=1;jettySize=auto;html=1;exitX=0.5;exitY=0;exitDx=0;exitDy=0;entryX=0.5;entryY=1;entryDx=0;entryDy=0;" edge="1" parent="gP9biF-QUwRpTRRh-aC0-9" source="gP9biF-QUwRpTRRh-aC0-2" target="gP9biF-QUwRpTRRh-aC0-1">
          <mxGeometry relative="1" as="geometry" />
        </mxCell>
        <mxCell id="gP9biF-QUwRpTRRh-aC0-2" value="EXCHANGE_OPERATOR" style="rounded=1;whiteSpace=wrap;html=1;" vertex="1" parent="gP9biF-QUwRpTRRh-aC0-9">
          <mxGeometry x="50" y="120" width="160" height="30" as="geometry" />
        </mxCell>
        <mxCell id="gP9biF-QUwRpTRRh-aC0-6" value="Pipeline:0" style="text;html=1;align=center;verticalAlign=middle;whiteSpace=wrap;rounded=0;" vertex="1" parent="gP9biF-QUwRpTRRh-aC0-9">
          <mxGeometry x="90" y="158" width="60" height="30" as="geometry" />
        </mxCell>
        <mxCell id="gP9biF-QUwRpTRRh-aC0-8" value="&lt;b&gt;Fragment 0&lt;/b&gt;" style="text;html=1;align=center;verticalAlign=middle;whiteSpace=wrap;rounded=0;" vertex="1" parent="gP9biF-QUwRpTRRh-aC0-9">
          <mxGeometry x="55" width="150" height="30" as="geometry" />
        </mxCell>
        <mxCell id="gP9biF-QUwRpTRRh-aC0-15" value="" style="group" vertex="1" connectable="0" parent="1">
          <mxGeometry x="470" y="480" width="260" height="140" as="geometry" />
        </mxCell>
        <mxCell id="gP9biF-QUwRpTRRh-aC0-13" value="" style="rounded=0;whiteSpace=wrap;html=1;fillColor=#f5f5f5;dashed=1;strokeColor=#666666;fontColor=#333333;" vertex="1" parent="gP9biF-QUwRpTRRh-aC0-15">
          <mxGeometry width="260" height="140" as="geometry" />
        </mxCell>
        <mxCell id="gP9biF-QUwRpTRRh-aC0-10" value="DATA_STREAM_SINK_OPERATOR" style="rounded=1;whiteSpace=wrap;html=1;" vertex="1" parent="gP9biF-QUwRpTRRh-aC0-15">
          <mxGeometry x="19" y="20" width="220" height="30" as="geometry" />
        </mxCell>
        <mxCell id="gP9biF-QUwRpTRRh-aC0-12" style="edgeStyle=orthogonalEdgeStyle;rounded=0;orthogonalLoop=1;jettySize=auto;html=1;exitX=0.5;exitY=0;exitDx=0;exitDy=0;entryX=0.5;entryY=1;entryDx=0;entryDy=0;" edge="1" parent="gP9biF-QUwRpTRRh-aC0-15" source="gP9biF-QUwRpTRRh-aC0-11" target="gP9biF-QUwRpTRRh-aC0-10">
          <mxGeometry relative="1" as="geometry" />
        </mxCell>
        <mxCell id="gP9biF-QUwRpTRRh-aC0-11" value="INTERSECT_OPERATOR" style="rounded=1;whiteSpace=wrap;html=1;" vertex="1" parent="gP9biF-QUwRpTRRh-aC0-15">
          <mxGeometry x="19" y="70" width="220" height="30" as="geometry" />
        </mxCell>
        <mxCell id="gP9biF-QUwRpTRRh-aC0-14" value="Pipeline:0" style="text;html=1;align=center;verticalAlign=middle;whiteSpace=wrap;rounded=0;" vertex="1" parent="gP9biF-QUwRpTRRh-aC0-15">
          <mxGeometry x="99" y="110" width="60" height="30" as="geometry" />
        </mxCell>
        <mxCell id="gP9biF-QUwRpTRRh-aC0-40" style="rounded=0;orthogonalLoop=1;jettySize=auto;html=1;exitX=0.5;exitY=0;exitDx=0;exitDy=0;" edge="1" parent="1" source="gP9biF-QUwRpTRRh-aC0-27">
          <mxGeometry relative="1" as="geometry">
            <mxPoint x="600" y="580" as="targetPoint" />
          </mxGeometry>
        </mxCell>
        <mxCell id="gP9biF-QUwRpTRRh-aC0-27" value="SET_PROBE_SINK_OPERATOR" style="rounded=1;whiteSpace=wrap;html=1;" vertex="1" parent="1">
          <mxGeometry x="702" y="705" width="190" height="30" as="geometry" />
        </mxCell>
        <mxCell id="gP9biF-QUwRpTRRh-aC0-28" value="" style="group" vertex="1" connectable="0" parent="1">
          <mxGeometry x="302" y="685" width="200" height="141" as="geometry" />
        </mxCell>
        <mxCell id="gP9biF-QUwRpTRRh-aC0-25" value="" style="rounded=0;whiteSpace=wrap;html=1;fillColor=#f5f5f5;dashed=1;strokeColor=#666666;fontColor=#333333;" vertex="1" parent="gP9biF-QUwRpTRRh-aC0-28">
          <mxGeometry width="200" height="140" as="geometry" />
        </mxCell>
        <mxCell id="gP9biF-QUwRpTRRh-aC0-16" value="SET_SINK_OPERATOR" style="rounded=1;whiteSpace=wrap;html=1;" vertex="1" parent="gP9biF-QUwRpTRRh-aC0-28">
          <mxGeometry x="25" y="20" width="150" height="30" as="geometry" />
        </mxCell>
        <mxCell id="gP9biF-QUwRpTRRh-aC0-17" value="EXCHANGE_OPERATOR" style="rounded=1;whiteSpace=wrap;html=1;" vertex="1" parent="gP9biF-QUwRpTRRh-aC0-28">
          <mxGeometry x="25" y="69" width="150" height="30" as="geometry" />
        </mxCell>
        <mxCell id="gP9biF-QUwRpTRRh-aC0-18" value="" style="endArrow=classic;html=1;rounded=0;exitX=0.5;exitY=0;exitDx=0;exitDy=0;" edge="1" parent="gP9biF-QUwRpTRRh-aC0-28" source="gP9biF-QUwRpTRRh-aC0-17" target="gP9biF-QUwRpTRRh-aC0-16">
          <mxGeometry width="50" height="50" relative="1" as="geometry">
            <mxPoint x="305" y="60" as="sourcePoint" />
            <mxPoint x="355" y="10" as="targetPoint" />
          </mxGeometry>
        </mxCell>
        <mxCell id="gP9biF-QUwRpTRRh-aC0-26" value="Pipeline:1" style="text;html=1;align=center;verticalAlign=middle;whiteSpace=wrap;rounded=0;" vertex="1" parent="gP9biF-QUwRpTRRh-aC0-28">
          <mxGeometry x="70" y="111" width="60" height="30" as="geometry" />
        </mxCell>
        <mxCell id="gP9biF-QUwRpTRRh-aC0-30" style="edgeStyle=orthogonalEdgeStyle;rounded=0;orthogonalLoop=1;jettySize=auto;html=1;exitX=0.5;exitY=0;exitDx=0;exitDy=0;entryX=0.5;entryY=1;entryDx=0;entryDy=0;" edge="1" parent="1" source="gP9biF-QUwRpTRRh-aC0-29" target="gP9biF-QUwRpTRRh-aC0-27">
          <mxGeometry relative="1" as="geometry" />
        </mxCell>
        <mxCell id="gP9biF-QUwRpTRRh-aC0-29" value="LOCAL_EXCHANGE_OPERATOR" style="rounded=1;whiteSpace=wrap;html=1;" vertex="1" parent="1">
          <mxGeometry x="702" y="755" width="190" height="30" as="geometry" />
        </mxCell>
        <mxCell id="gP9biF-QUwRpTRRh-aC0-38" value="Pipeline:2" style="text;html=1;align=center;verticalAlign=middle;whiteSpace=wrap;rounded=0;" vertex="1" parent="1">
          <mxGeometry x="767" y="799" width="60" height="30" as="geometry" />
        </mxCell>
        <mxCell id="gP9biF-QUwRpTRRh-aC0-39" style="rounded=0;orthogonalLoop=1;jettySize=auto;html=1;exitX=0.5;exitY=0;exitDx=0;exitDy=0;entryX=0.5;entryY=1;entryDx=0;entryDy=0;" edge="1" parent="1" source="gP9biF-QUwRpTRRh-aC0-16" target="gP9biF-QUwRpTRRh-aC0-11">
          <mxGeometry relative="1" as="geometry" />
        </mxCell>
        <mxCell id="gP9biF-QUwRpTRRh-aC0-48" value="" style="group" vertex="1" connectable="0" parent="1">
          <mxGeometry x="660" y="880" width="270" height="182" as="geometry" />
        </mxCell>
        <mxCell id="gP9biF-QUwRpTRRh-aC0-46" value="" style="rounded=0;whiteSpace=wrap;html=1;fillColor=#f5f5f5;dashed=1;strokeColor=#666666;fontColor=#333333;" vertex="1" parent="gP9biF-QUwRpTRRh-aC0-48">
          <mxGeometry width="270" height="180" as="geometry" />
        </mxCell>
        <mxCell id="gP9biF-QUwRpTRRh-aC0-41" value="LOCAL_EXCHANGE_SINK_OPERATOR" style="rounded=1;whiteSpace=wrap;html=1;" vertex="1" parent="gP9biF-QUwRpTRRh-aC0-48">
          <mxGeometry x="21" y="12" width="228" height="30" as="geometry" />
        </mxCell>
        <mxCell id="gP9biF-QUwRpTRRh-aC0-45" style="edgeStyle=orthogonalEdgeStyle;rounded=0;orthogonalLoop=1;jettySize=auto;html=1;exitX=0.5;exitY=0;exitDx=0;exitDy=0;entryX=0.5;entryY=1;entryDx=0;entryDy=0;" edge="1" parent="gP9biF-QUwRpTRRh-aC0-48" source="gP9biF-QUwRpTRRh-aC0-42" target="gP9biF-QUwRpTRRh-aC0-41">
          <mxGeometry relative="1" as="geometry" />
        </mxCell>
        <mxCell id="gP9biF-QUwRpTRRh-aC0-42" value="CROSS_JOIN_OPERATOR" style="rounded=1;whiteSpace=wrap;html=1;" vertex="1" parent="gP9biF-QUwRpTRRh-aC0-48">
          <mxGeometry x="21" y="62" width="228" height="30" as="geometry" />
        </mxCell>
        <mxCell id="gP9biF-QUwRpTRRh-aC0-44" style="edgeStyle=orthogonalEdgeStyle;rounded=0;orthogonalLoop=1;jettySize=auto;html=1;exitX=0.5;exitY=0;exitDx=0;exitDy=0;entryX=0.5;entryY=1;entryDx=0;entryDy=0;" edge="1" parent="gP9biF-QUwRpTRRh-aC0-48" source="gP9biF-QUwRpTRRh-aC0-43" target="gP9biF-QUwRpTRRh-aC0-42">
          <mxGeometry relative="1" as="geometry" />
        </mxCell>
        <mxCell id="gP9biF-QUwRpTRRh-aC0-43" value="LOCAL_EXCHANGE_OPERATOR" style="rounded=1;whiteSpace=wrap;html=1;" vertex="1" parent="gP9biF-QUwRpTRRh-aC0-48">
          <mxGeometry x="21" y="112" width="228" height="30" as="geometry" />
        </mxCell>
        <mxCell id="gP9biF-QUwRpTRRh-aC0-47" value="Pipeline:3" style="text;html=1;align=center;verticalAlign=middle;whiteSpace=wrap;rounded=0;" vertex="1" parent="gP9biF-QUwRpTRRh-aC0-48">
          <mxGeometry x="104" y="152" width="60" height="30" as="geometry" />
        </mxCell>
        <mxCell id="gP9biF-QUwRpTRRh-aC0-55" style="edgeStyle=isometricEdgeStyle;rounded=0;orthogonalLoop=1;jettySize=auto;html=1;exitX=0.5;exitY=0;exitDx=0;exitDy=0;entryX=0.5;entryY=1;entryDx=0;entryDy=0;" edge="1" parent="1" source="gP9biF-QUwRpTRRh-aC0-49" target="gP9biF-QUwRpTRRh-aC0-43">
          <mxGeometry relative="1" as="geometry" />
        </mxCell>
        <mxCell id="gP9biF-QUwRpTRRh-aC0-49" value="LOCAL_EXCHANGE_SINK_OPERATOR" style="rounded=1;whiteSpace=wrap;html=1;" vertex="1" parent="1">
          <mxGeometry x="670" y="1115" width="250" height="30" as="geometry" />
        </mxCell>
        <mxCell id="gP9biF-QUwRpTRRh-aC0-53" style="edgeStyle=orthogonalEdgeStyle;rounded=0;orthogonalLoop=1;jettySize=auto;html=1;exitX=0.5;exitY=0;exitDx=0;exitDy=0;entryX=0.5;entryY=1;entryDx=0;entryDy=0;" edge="1" parent="1" source="gP9biF-QUwRpTRRh-aC0-50" target="gP9biF-QUwRpTRRh-aC0-49">
          <mxGeometry relative="1" as="geometry" />
        </mxCell>
        <mxCell id="gP9biF-QUwRpTRRh-aC0-50" value="DISTINCT_STREAMING_&lt;div&gt;AGGREGATION_OPERATOR&lt;/div&gt;" style="rounded=1;whiteSpace=wrap;html=1;" vertex="1" parent="1">
          <mxGeometry x="670" y="1165" width="250" height="30" as="geometry" />
        </mxCell>
        <mxCell id="gP9biF-QUwRpTRRh-aC0-52" style="edgeStyle=orthogonalEdgeStyle;rounded=0;orthogonalLoop=1;jettySize=auto;html=1;exitX=0.5;exitY=0;exitDx=0;exitDy=0;entryX=0.5;entryY=1;entryDx=0;entryDy=0;" edge="1" parent="1" source="gP9biF-QUwRpTRRh-aC0-51" target="gP9biF-QUwRpTRRh-aC0-50">
          <mxGeometry relative="1" as="geometry" />
        </mxCell>
        <mxCell id="gP9biF-QUwRpTRRh-aC0-51" value="EXCHANGE_OPERATOR" style="rounded=1;whiteSpace=wrap;html=1;" vertex="1" parent="1">
          <mxGeometry x="670" y="1215" width="250" height="30" as="geometry" />
        </mxCell>
        <mxCell id="gP9biF-QUwRpTRRh-aC0-56" style="edgeStyle=isometricEdgeStyle;rounded=0;orthogonalLoop=1;jettySize=auto;html=1;exitX=0.5;exitY=0;exitDx=0;exitDy=0;entryX=0.5;entryY=1;entryDx=0;entryDy=0;elbow=vertical;" edge="1" parent="1" source="gP9biF-QUwRpTRRh-aC0-41" target="gP9biF-QUwRpTRRh-aC0-29">
          <mxGeometry relative="1" as="geometry" />
        </mxCell>
        <mxCell id="gP9biF-QUwRpTRRh-aC0-57" value="Pipeline:4" style="text;html=1;align=center;verticalAlign=middle;whiteSpace=wrap;rounded=0;" vertex="1" parent="1">
          <mxGeometry x="765" y="1247" width="60" height="30" as="geometry" />
        </mxCell>
      </root>
    </mxGraphModel>
  </diagram>
</mxfile>
